<svg xmlns="http://www.w3.org/2000/svg" xmlns:xlink="http://www.w3.org/1999/xlink" width="78" height="18" viewBox="0 0 78 18">
    <defs>
        <path id="l5svkyyina" d="M0.001 0.004L18.564 0.004 18.564 17.176 0.001 17.176z"/>
    </defs>
    <g fill="none" fill-rule="evenodd">
        <g>
            <g>
                <g transform="translate(-246 -197) translate(246 197) translate(59.436 .074)">
                    <mask id="m8k87zy5ub" fill="#fff">
                        <use xlink:href="#l5svkyyina"/>
                    </mask>
                    <path fill="#F0FF5F" d="M15.315 17.176H3.25C1.456 17.176 0 15.714 0 13.91V3.27C.001 1.468 1.456.005 3.25.005h12.065c1.795 0 3.249 1.463 3.249 3.267V13.91c0 1.804-1.454 3.266-3.249 3.266" mask="url(#m8k87zy5ub)"/>
                </g>
                <path fill="#000" d="M73.816 10.546c.535-.613 1.057-1.328 1.564-2.147H72.53c-1.275 1.672-2.553 2.503-3.81 2.473-.736-.017-1.446-.337-2.085-.79l2.085-3.511.44.73c.634.914 1.369.44 1.693.22.445-.304.805-.619.805-.619L68.72 1.96 61.095 14.8h2.737l1.589-2.676c.928.633 2.017 1.098 3.234 1.129l.133.002c1.122 0 2.209-.365 3.254-1.088l1.563 2.633h2.738l-2.527-4.254zM40.902 5.479c-1.217 0-2.185.471-2.802 1.364l-.086.125-.085-.126c-.598-.892-1.527-1.363-2.689-1.363-1.11 0-2.016.433-2.616 1.252l-.08.1-.499-1.124-2.794-.004.75 1.692v7.398h2.718V9.545c0-1.127.585-1.8 1.565-1.8.97 0 1.547.673 1.547 1.8v5.248h2.718V9.545c0-1.127.585-1.8 1.565-1.8.97 0 1.547.673 1.547 1.8v5.248h2.718V9.164c0-2.239-1.365-3.685-3.477-3.685zm11.466 3.829l-.026-.127c-.21-1.03-.97-1.646-2.032-1.646-1.074 0-1.84.615-2.051 1.646l-.026.127h4.135zm2.356-.322v2.283h-6.43l.042.136c.207.683.697 1.157 1.418 1.392.597.176 1.397.167 1.996-.019.544-.168.864-.35.864-.35l1.416 1.614c-.899.614-2.11.98-3.252.98-3.021 0-5.051-1.918-5.051-4.772 0-2.765 1.927-4.771 4.583-4.771 2.295 0 3.903 1.277 4.414 3.507zM25.756 10.25c0-1.308-.919-2.258-2.185-2.258s-2.184.95-2.184 2.258.918 2.258 2.184 2.258 2.185-.95 2.185-2.258zm2.717 0c0 1.35-.525 2.579-1.478 3.46-.913.846-2.129 1.311-3.424 1.311s-2.51-.465-3.424-1.31c-.953-.882-1.477-2.111-1.477-3.461 0-1.35.524-2.579 1.477-3.46.913-.846 2.13-1.311 3.424-1.311 1.295 0 2.511.465 3.424 1.31.953.882 1.478 2.111 1.478 3.461zm-21.387-.095c-.058-1.256-.976-2.163-2.184-2.163-1.266 0-2.185.95-2.185 2.258s.919 2.258 2.185 2.258c1.209 0 2.127-.908 2.184-2.158v-.195zm2.717 2.662l.53 1.976H7.886l-.347-1.266-.126.137c-.807.875-1.898 1.357-3.074 1.357-1.143 0-2.218-.464-3.026-1.306C.466 12.832 0 11.602 0 10.25c0-1.352.466-2.582 1.313-3.465.808-.843 1.883-1.306 3.026-1.306 1.12 0 2.167.435 2.945 1.226l.177.18V5.707h2.342v7.11zm5.642-7.11h2.887l-.995 2.266h-1.892v3.306c0 .842.342 1.234 1.078 1.234l.778.012v2.268h-1.303c-2.292 0-3.27-.897-3.27-3v-3.82h-1.294V5.707h1.294V3.46h2.717v2.248z" transform="translate(-246 -197) translate(246 197)"/>
            </g>
        </g>
    </g>
</svg>
