<svg width="28" height="25" viewBox="0 0 28 25" fill="none" xmlns="http://www.w3.org/2000/svg">
<path d="M14.2665 0C9.34384 0 5.35324 3.9906 5.35324 8.91326V17.8265H14.2665C19.1891 17.8265 23.1797 13.8359 23.1797 8.91326C23.1797 3.9906 19.1891 0 14.2665 0Z" fill="#E52561"/>
<path d="M0.912994 24.9995C0.788383 24.9995 0.676984 24.9539 0.590831 24.8676C0.504733 24.7817 0.459122 24.6702 0.459122 24.5456V20.6951C0.459122 20.5718 0.503939 20.4601 0.588721 20.3721C0.675066 20.2823 0.787205 20.2349 0.912995 20.2349H2.18805C2.70033 20.2349 3.14371 20.3515 3.50583 20.5815C3.86665 20.8107 4.14199 21.1117 4.32422 21.4761C4.50439 21.8367 4.59575 22.2206 4.59575 22.6172C4.59575 23.0139 4.50439 23.3978 4.32425 23.7582C4.14199 24.1227 3.86665 24.4238 3.50583 24.6529C3.14384 24.8829 2.70047 24.9995 2.18805 24.9995H0.912994V24.9995ZM2.11829 24.1235C2.43524 24.1235 2.71563 24.0588 2.95166 23.9312C3.18787 23.8036 3.36543 23.6318 3.49454 23.4059C3.62291 23.1811 3.68801 22.9158 3.68801 22.6172C3.68801 22.3187 3.62291 22.0533 3.49451 21.8285C3.36543 21.6027 3.18784 21.4309 2.95164 21.3031C2.71546 21.1756 2.43505 21.1109 2.11829 21.1109H1.37323V24.1235H2.11829V24.1235Z" fill="#020102"/>
<path d="M9.72421 24.9998C9.59974 24.9998 9.48839 24.9543 9.40216 24.8681C9.31592 24.782 9.27031 24.6706 9.27031 24.5459V21.8245C9.27031 21.7012 9.31513 21.5895 9.39997 21.5015C9.48615 21.4118 9.59834 21.3643 9.72421 21.3643C9.85274 21.3643 9.96628 21.4099 10.0525 21.496C10.1389 21.5825 10.1844 21.696 10.1844 21.8245V24.5459C10.1844 24.6717 10.1369 24.7839 10.0471 24.8703C9.95896 24.9551 9.84731 24.9998 9.72421 24.9998V24.9998ZM9.71152 21.0706C9.57869 21.0706 9.45852 21.0207 9.36403 20.9261C9.26954 20.8316 9.21957 20.7115 9.21957 20.5787V20.5533C9.21957 20.4205 9.26954 20.3004 9.36406 20.2059C9.4586 20.1113 9.57874 20.0614 9.71152 20.0614H9.74957C9.88235 20.0614 10.0025 20.1113 10.097 20.2058C10.1915 20.3004 10.2415 20.4205 10.2415 20.5533V20.5787C10.2415 20.7115 10.1915 20.8316 10.097 20.9261C10.0026 21.0206 9.8824 21.0706 9.74957 21.0706H9.71152L9.71152 21.0706Z" fill="#020102"/>
<path d="M8.00613 21.3324C7.88292 21.3324 7.77124 21.3772 7.68309 21.462C7.59334 21.5484 7.5459 21.6606 7.5459 21.7863V21.8143C7.54583 21.8177 7.54498 21.8209 7.54498 21.8243V23.5149C7.54498 23.9389 7.17895 24.1299 6.83708 24.1299C6.46602 24.1299 6.14459 23.9488 6.14459 23.5244V21.7863C6.14459 21.6619 6.09903 21.5505 6.01271 21.4641C5.92645 21.378 5.8151 21.3324 5.69072 21.3324C5.56748 21.3324 5.45581 21.3772 5.36773 21.462C5.27793 21.5484 5.23048 21.6606 5.23048 21.7863V23.5878C5.23048 23.8406 5.28191 24.0763 5.38333 24.2884C5.48749 24.5065 5.64033 24.6814 5.83764 24.808C6.03574 24.9351 6.27016 24.9996 6.5344 24.9996C6.81633 24.9996 7.06214 24.9591 7.23963 24.7936C7.38007 24.6626 7.45458 24.4993 7.49525 24.4976C7.53491 24.496 7.54215 24.5223 7.54498 24.5457C7.55657 24.6839 7.59059 24.7817 7.67683 24.8678C7.76306 24.954 7.87441 24.9996 7.99888 24.9996C8.12198 24.9996 8.23363 24.9548 8.32181 24.8701C8.41161 24.7836 8.45909 24.6715 8.45909 24.5457V23.4606C8.45911 23.4595 8.46004 23.4577 8.46 23.4567V21.7863C8.46 21.6619 8.41444 21.5506 8.32809 21.4641C8.24181 21.3779 8.13049 21.3324 8.00613 21.3324L8.00613 21.3324Z" fill="#020102"/>
<path d="M17.2926 24.9995C17.1971 24.9995 17.1062 24.9768 17.0226 24.9319C16.9421 24.8888 16.8744 24.8312 16.8216 24.7609L16.8179 24.7557L14.6698 21.7637V24.5457C14.6698 24.6715 14.6223 24.7836 14.5325 24.87C14.4444 24.9548 14.3327 24.9995 14.2096 24.9995C14.0851 24.9995 13.9738 24.954 13.8876 24.8678C13.8013 24.7817 13.7557 24.6703 13.7557 24.5457V20.8693C13.7557 20.7102 13.8123 20.5714 13.924 20.4568C14.0352 20.3426 14.1778 20.2822 14.3365 20.2822H14.4189C14.5494 20.2822 14.739 20.3267 14.9014 20.5384L14.904 20.5417L17.0417 23.4074V20.7424C17.0417 20.6191 17.0865 20.5074 17.1713 20.4194C17.2576 20.3297 17.3697 20.2822 17.4956 20.2822C17.6201 20.2822 17.7326 20.3289 17.8208 20.4172C17.9091 20.5054 17.9558 20.6179 17.9558 20.7424V24.4188C17.9558 24.5774 17.8954 24.7201 17.7812 24.8313C17.6667 24.9429 17.5279 24.9995 17.3687 24.9995H17.2926H17.2926Z" fill="#E52561"/>
<path d="M26.4656 24.9996C26.3375 24.9996 26.2207 24.9626 26.1184 24.8897C26.0196 24.8195 25.9476 24.7275 25.9046 24.6165L25.9022 24.6098L25.3626 23.0109L24.8219 24.6133L24.8206 24.6167C24.7775 24.7276 24.7056 24.8195 24.6068 24.8898C24.5044 24.9627 24.3876 24.9996 24.2597 24.9996C24.1316 24.9996 24.0148 24.9626 23.9125 24.8897C23.8123 24.8185 23.7419 24.727 23.7036 24.618L22.7548 21.9803C22.7351 21.924 22.7253 21.8698 22.7253 21.818C22.7253 21.6935 22.7733 21.5821 22.8642 21.4959C22.955 21.4097 23.0724 21.3641 23.2035 21.3641C23.3006 21.3641 23.3905 21.3893 23.4708 21.439C23.5564 21.492 23.6152 21.5631 23.6459 21.6505L24.261 23.5709L24.8655 21.7112C24.8992 21.6087 24.9623 21.5246 25.053 21.4607C25.1443 21.3966 25.2484 21.3641 25.3626 21.3641C25.4769 21.3641 25.581 21.3966 25.6721 21.4607C25.7627 21.5244 25.8258 21.6084 25.8595 21.7104L26.4643 23.5709L27.0792 21.6507C27.1099 21.5632 27.1688 21.492 27.2543 21.439C27.3345 21.3894 27.4245 21.3641 27.5217 21.3641C27.6528 21.3641 27.7701 21.4097 27.861 21.4958C27.952 21.5822 28 21.6936 28 21.818C28 21.8698 27.9902 21.924 27.9708 21.9791L27.0212 24.6192C26.9834 24.7268 26.9131 24.8183 26.8127 24.8898C26.7103 24.9627 26.5935 24.9996 26.4656 24.9996L26.4656 24.9996Z" fill="#E52561"/>
<path d="M12.2816 24.9994C11.5758 24.9994 11.187 24.6422 11.187 23.9936L11.1873 22.1954H11.1497C11.0322 22.1954 10.9287 22.1522 10.8505 22.0704C10.7742 21.9907 10.7339 21.8902 10.7339 21.7795C10.7339 21.6636 10.775 21.561 10.8528 21.483C10.9312 21.4049 11.0337 21.3637 11.1497 21.3637H11.1874V20.8941C11.1874 20.7649 11.2347 20.6513 11.3244 20.5654C11.412 20.4816 11.5226 20.4374 11.6442 20.4374C11.7718 20.4374 11.8845 20.4825 11.9701 20.5678C12.0558 20.6538 12.101 20.7665 12.101 20.8941L12.101 21.0127L12.1012 21.0248V21.3639H12.6496C12.7656 21.3639 12.8681 21.405 12.9461 21.4829C13.0242 21.5612 13.0654 21.6637 13.0654 21.7797C13.0654 21.8904 13.0251 21.9909 12.9489 22.0706C12.8706 22.1524 12.7671 22.1956 12.6496 22.1956H12.1012V23.9429C12.1012 24.0805 12.1894 24.2206 12.2975 24.2272C12.4261 24.2351 12.7855 24.2141 12.8878 24.2692C12.9718 24.3144 13.0606 24.428 13.0618 24.5508C13.0633 24.7106 12.9778 24.8425 12.8254 24.9221L12.8218 24.924L12.818 24.9257C12.6316 25.0117 12.4914 24.9994 12.2816 24.9994L12.2816 24.9994Z" fill="#020102"/>
<path d="M14.2666 3.98279C11.5433 3.98279 9.33571 6.19041 9.33571 8.91365V13.8445H14.2666C16.9898 13.8445 19.1974 11.6369 19.1974 8.91365C19.1974 6.19041 16.9898 3.98279 14.2666 3.98279ZM14.2666 11.1162H12.064V8.91365C12.064 7.69721 13.0501 6.7111 14.2666 6.7111C15.483 6.7111 16.4691 7.69721 16.4691 8.91365C16.4691 10.1301 15.483 11.1162 14.2666 11.1162Z" fill="white"/>
<path d="M20.553 21.2477C19.5176 21.2477 18.6782 22.0871 18.6782 23.1225C18.6782 24.158 19.5176 24.9973 20.553 24.9973C21.5885 24.9973 22.4279 24.158 22.4279 23.1225C22.4279 22.0871 21.5885 21.2477 20.553 21.2477ZM20.553 24.1311C19.996 24.1311 19.5445 23.6795 19.5445 23.1225C19.5445 22.5655 19.996 22.114 20.553 22.114C21.11 22.114 21.5616 22.5655 21.5616 23.1225C21.5616 23.6795 21.11 24.1311 20.553 24.1311Z" fill="#E52561"/>
</svg>
