<svg width="103" height="25" viewBox="0 0 103 25" fill="none" xmlns="http://www.w3.org/2000/svg">
<path d="M14.1943 0C9.27167 0 5.28107 3.9906 5.28107 8.91326V17.8265H14.1943C19.117 17.8265 23.1076 13.8359 23.1076 8.91326C23.1076 3.9906 19.117 0 14.1943 0Z" fill="#E52561"/>
<path d="M0.840827 24.9995C0.716216 24.9995 0.604817 24.9539 0.518665 24.8676C0.432567 24.7817 0.386955 24.6702 0.386955 24.5456V20.6951C0.386955 20.5718 0.431773 20.4601 0.516555 20.3721C0.6029 20.2823 0.715039 20.2349 0.840828 20.2349H2.11588C2.62817 20.2349 3.07154 20.3515 3.43367 20.5815C3.79448 20.8107 4.06982 21.1117 4.25205 21.4761C4.43222 21.8367 4.52359 22.2206 4.52359 22.6172C4.52359 23.0139 4.43223 23.3978 4.25208 23.7582C4.06982 24.1227 3.79448 24.4238 3.43367 24.6529C3.07168 24.8829 2.6283 24.9995 2.11588 24.9995H0.840827V24.9995ZM2.04612 24.1235C2.36307 24.1235 2.64346 24.0588 2.8795 23.9312C3.1157 23.8036 3.29327 23.6318 3.42237 23.4059C3.55074 23.1811 3.61584 22.9158 3.61584 22.6172C3.61584 22.3187 3.55074 22.0533 3.42235 21.8285C3.29327 21.6027 3.11567 21.4309 2.87947 21.3031C2.6433 21.1756 2.36288 21.1109 2.04612 21.1109H1.30106V24.1235H2.04612V24.1235Z" fill="#020102"/>
<path d="M9.65205 24.9998C9.52758 24.9998 9.41624 24.9543 9.33 24.8681C9.24376 24.782 9.19815 24.6706 9.19815 24.5459V21.8245C9.19815 21.7012 9.24297 21.5895 9.32781 21.5015C9.41399 21.4118 9.52618 21.3643 9.65205 21.3643C9.78058 21.3643 9.89412 21.4099 9.98038 21.496C10.0667 21.5825 10.1123 21.696 10.1123 21.8245V24.5459C10.1123 24.6717 10.0648 24.7839 9.97498 24.8703C9.8868 24.9551 9.77516 24.9998 9.65205 24.9998V24.9998ZM9.63936 21.0706C9.50653 21.0706 9.38636 21.0207 9.29187 20.9261C9.19738 20.8316 9.14742 20.7115 9.14742 20.5787V20.5533C9.14742 20.4205 9.19739 20.3004 9.2919 20.2059C9.38644 20.1113 9.50658 20.0614 9.63936 20.0614H9.67741C9.81019 20.0614 9.93033 20.1113 10.0249 20.2058C10.1194 20.3004 10.1694 20.4205 10.1694 20.5533V20.5787C10.1694 20.7115 10.1194 20.8316 10.0249 20.9261C9.93041 21.0206 9.81024 21.0706 9.67741 21.0706H9.63936L9.63936 21.0706Z" fill="#020102"/>
<path d="M7.93396 21.3324C7.81075 21.3324 7.69907 21.3772 7.61092 21.462C7.52118 21.5484 7.47373 21.6606 7.47373 21.7863V21.8143C7.47367 21.8177 7.47281 21.8209 7.47281 21.8243V23.5149C7.47281 23.9389 7.10678 24.1299 6.76491 24.1299C6.39385 24.1299 6.07242 23.9488 6.07242 23.5244V21.7863C6.07242 21.6619 6.02686 21.5505 5.94055 21.4641C5.85428 21.378 5.74294 21.3324 5.61855 21.3324C5.49531 21.3324 5.38364 21.3772 5.29557 21.462C5.20577 21.5484 5.15832 21.6606 5.15832 21.7863V23.5878C5.15832 23.8406 5.20974 24.0763 5.31116 24.2884C5.41532 24.5065 5.56817 24.6814 5.76547 24.808C5.96358 24.9351 6.19799 24.9996 6.46224 24.9996C6.74416 24.9996 6.98997 24.9591 7.16747 24.7936C7.30791 24.6626 7.38242 24.4993 7.42308 24.4976C7.46274 24.496 7.46999 24.5223 7.47281 24.5457C7.4844 24.6839 7.51843 24.7817 7.60466 24.8678C7.69089 24.954 7.80224 24.9996 7.92671 24.9996C8.04982 24.9996 8.16146 24.9548 8.24965 24.8701C8.33944 24.7836 8.38692 24.6715 8.38692 24.5457V23.4606C8.38695 23.4595 8.38788 23.4577 8.38783 23.4567V21.7863C8.38783 21.6619 8.34228 21.5506 8.25593 21.4641C8.16964 21.3779 8.05833 21.3324 7.93396 21.3324L7.93396 21.3324Z" fill="#020102"/>
<path d="M17.2204 24.9995C17.1249 24.9995 17.0341 24.9768 16.9505 24.9319C16.8699 24.8888 16.8022 24.8312 16.7495 24.7609L16.7457 24.7557L14.5976 21.7637V24.5457C14.5976 24.6715 14.5502 24.7836 14.4603 24.87C14.3722 24.9548 14.2606 24.9995 14.1374 24.9995C14.013 24.9995 13.9016 24.954 13.8154 24.8678C13.7291 24.7817 13.6835 24.6703 13.6835 24.5457V20.8693C13.6835 20.7102 13.7402 20.5714 13.8519 20.4568C13.963 20.3426 14.1057 20.2822 14.2643 20.2822H14.3467C14.4772 20.2822 14.6668 20.3267 14.8293 20.5384L14.8318 20.5417L16.9695 23.4074V20.7424C16.9695 20.6191 17.0143 20.5074 17.0991 20.4194C17.1854 20.3297 17.2975 20.2822 17.4234 20.2822C17.5479 20.2822 17.6604 20.3289 17.7487 20.4172C17.8369 20.5054 17.8836 20.6179 17.8836 20.7424V24.4188C17.8836 24.5774 17.8232 24.7201 17.709 24.8313C17.5945 24.9429 17.4557 24.9995 17.2965 24.9995H17.2204H17.2204Z" fill="#E52561"/>
<path d="M26.3934 24.9996C26.2653 24.9996 26.1485 24.9626 26.0462 24.8897C25.9474 24.8195 25.8754 24.7275 25.8325 24.6165L25.83 24.6098L25.2905 23.0109L24.7498 24.6133L24.7484 24.6167C24.7053 24.7276 24.6334 24.8195 24.5347 24.8898C24.4322 24.9627 24.3154 24.9996 24.1875 24.9996C24.0595 24.9996 23.9427 24.9626 23.8403 24.8897C23.7401 24.8185 23.6698 24.727 23.6315 24.618L22.6827 21.9803C22.6629 21.924 22.6531 21.8698 22.6531 21.818C22.6531 21.6935 22.7011 21.5821 22.792 21.4959C22.8828 21.4097 23.0002 21.3641 23.1314 21.3641C23.2284 21.3641 23.3184 21.3893 23.3987 21.439C23.4842 21.492 23.543 21.5631 23.5738 21.6505L24.1888 23.5709L24.7934 21.7112C24.8271 21.6087 24.8901 21.5246 24.9809 21.4607C25.0721 21.3966 25.1762 21.3641 25.2905 21.3641C25.4047 21.3641 25.5088 21.3966 25.6 21.4607C25.6906 21.5244 25.7536 21.6084 25.7873 21.7104L26.3921 23.5709L27.0071 21.6507C27.0377 21.5632 27.0966 21.492 27.1822 21.439C27.2624 21.3894 27.3523 21.3641 27.4496 21.3641C27.5806 21.3641 27.698 21.4097 27.7889 21.4958C27.8798 21.5822 27.9278 21.6936 27.9278 21.818C27.9278 21.8698 27.918 21.924 27.8987 21.9791L26.9491 24.6192C26.9113 24.7268 26.8409 24.8183 26.7405 24.8898C26.6381 24.9627 26.5213 24.9996 26.3934 24.9996L26.3934 24.9996Z" fill="#E52561"/>
<path d="M12.2095 24.9994C11.5036 24.9994 11.1149 24.6422 11.1149 23.9936L11.1151 22.1954H11.0776C10.96 22.1954 10.8565 22.1522 10.7783 22.0704C10.702 21.9907 10.6618 21.8902 10.6618 21.7795C10.6618 21.6636 10.7029 21.561 10.7807 21.483C10.859 21.4049 10.9616 21.3637 11.0776 21.3637H11.1152V20.8941C11.1152 20.7649 11.1626 20.6513 11.2522 20.5654C11.3399 20.4816 11.4504 20.4374 11.572 20.4374C11.6996 20.4374 11.8123 20.4825 11.8979 20.5678C11.9837 20.6538 12.0288 20.7665 12.0288 20.8941L12.0289 21.0127L12.029 21.0248V21.3639H12.5774C12.6934 21.3639 12.796 21.405 12.874 21.4829C12.9521 21.5612 12.9932 21.6637 12.9932 21.7797C12.9932 21.8904 12.9529 21.9909 12.8767 22.0706C12.7985 22.1524 12.695 22.1956 12.5774 22.1956H12.029V23.9429C12.029 24.0805 12.1172 24.2206 12.2254 24.2272C12.3539 24.2351 12.7133 24.2141 12.8156 24.2692C12.8996 24.3144 12.9885 24.428 12.9897 24.5508C12.9912 24.7106 12.9057 24.8425 12.7533 24.9221L12.7496 24.924L12.7459 24.9257C12.5594 25.0117 12.4192 24.9994 12.2095 24.9994L12.2095 24.9994Z" fill="#020102"/>
<path d="M14.1944 3.98279C11.4712 3.98279 9.26355 6.19041 9.26355 8.91365V13.8445H14.1944C16.9177 13.8445 19.1253 11.6369 19.1253 8.91365C19.1253 6.19041 16.9177 3.98279 14.1944 3.98279ZM14.1944 11.1162H11.9919V8.91365C11.9919 7.69721 12.978 6.7111 14.1944 6.7111C15.4109 6.7111 16.397 7.69721 16.397 8.91365C16.397 10.1301 15.4109 11.1162 14.1944 11.1162Z" fill="white"/>
<path d="M20.4809 21.2477C19.4454 21.2477 18.606 22.0871 18.606 23.1225C18.606 24.158 19.4454 24.9973 20.4809 24.9973C21.5163 24.9973 22.3557 24.158 22.3557 23.1225C22.3557 22.0871 21.5163 21.2477 20.4809 21.2477ZM20.4809 24.1311C19.9239 24.1311 19.4723 23.6795 19.4723 23.1225C19.4723 22.5655 19.9239 22.114 20.4809 22.114C21.0379 22.114 21.4894 22.5655 21.4894 23.1225C21.4894 23.6795 21.0379 24.1311 20.4809 24.1311Z" fill="#E52561"/>
<rect x="33.9278" width="69.0722" height="25" rx="9" fill="url(#paint0_linear_432_2147)"/>
<path d="M60.9428 10.6678V10.0951C60.9429 9.39312 60.799 8.698 60.5192 8.04944C60.2393 7.40088 59.8291 6.81159 59.3119 6.31523C58.7947 5.81886 58.1807 5.42515 57.5049 5.15659C56.8292 4.88802 56.1049 4.74986 55.3734 4.75H45.4251C43.9485 4.7516 42.5329 5.31525 41.4887 6.31731C40.4446 7.31936 39.8573 8.67796 39.8557 10.0951V14.8688C39.8573 16.286 40.4446 17.6445 41.4887 18.6466C42.5329 19.6486 43.9485 20.2123 45.4251 20.2139H55.3719C56.8491 20.2139 58.2658 19.6507 59.3105 18.6484C60.3552 17.6461 60.9423 16.2865 60.9428 14.8688V14.2961H52.288V14.8688C52.2893 15.5489 52.1178 16.219 51.7883 16.8211C51.4588 17.4231 50.9813 17.939 50.3972 18.324C50.1803 18.18 49.9772 18.0175 49.7905 17.8388L49.7903 17.8385C49.0231 17.1064 48.5683 16.1259 48.5148 15.0889C49.1745 14.368 49.5384 13.4414 49.5384 12.482C49.5384 11.5226 49.1746 10.596 48.5149 9.87511C48.55 9.23358 48.7379 8.60831 49.0642 8.04742C49.3905 7.48652 49.8466 7.00495 50.3973 6.63976C50.9814 7.02487 51.459 7.54076 51.7887 8.14281C52.1184 8.74486 52.2903 9.41493 52.2895 10.0951V10.6678L60.9428 10.6678ZM51.8506 18.6486C52.7524 17.7881 53.3174 16.6554 53.4502 15.4416H59.7092C59.5641 16.4467 59.0452 17.3676 58.248 18.0342C57.4508 18.7008 56.4292 19.0682 55.3719 19.0684H51.3586C51.5311 18.938 51.6953 18.7977 51.8506 18.6486ZM47.6482 10.6675C48.0977 11.1734 48.3446 11.8164 48.3448 12.4813C48.345 13.1461 48.0983 13.7893 47.649 14.2954H41.0492V10.6675H47.6482ZM48.9464 18.6486C49.0291 18.728 49.1146 18.805 49.2029 18.8796C49.1698 18.8894 49.1369 18.8995 49.1036 18.9085C49.066 18.9188 49.0284 18.9285 48.9906 18.9377C48.9304 18.9524 48.8698 18.9662 48.8089 18.9784C48.7698 18.9861 48.7305 18.993 48.6911 18.9997C48.6327 19.0099 48.5743 19.0197 48.5155 19.0276C48.4647 19.0342 48.4135 19.039 48.3623 19.044C48.3144 19.0488 48.2665 19.0544 48.2184 19.0576C48.1169 19.0642 48.0149 19.0684 47.9121 19.0684H45.4251C44.3683 19.0671 43.3476 18.6992 42.5511 18.0325C41.7546 17.3659 41.236 16.4455 41.0909 15.4409H47.3476C47.48 16.6548 48.0447 17.7878 48.9464 18.6486ZM47.3474 9.52206H41.091C41.2364 8.51763 41.7551 7.59745 42.5515 6.93102C43.3479 6.26461 44.3685 5.89684 45.4251 5.89546H47.9121C48.0147 5.89546 48.1166 5.89963 48.2178 5.90623C48.2674 5.90956 48.3166 5.91532 48.366 5.92029C48.4154 5.9251 48.465 5.92968 48.514 5.93612C48.5751 5.94427 48.6359 5.95447 48.6965 5.9651C48.7328 5.97139 48.7691 5.97758 48.8051 5.98478C48.8695 5.99761 48.9333 6.01212 48.997 6.02774C49.0301 6.03585 49.0631 6.04437 49.096 6.05329C49.1316 6.06287 49.1667 6.07371 49.202 6.08416C48.1577 6.96731 47.496 8.19387 47.3474 9.52206ZM51.8508 6.31523C51.6955 6.16616 51.5313 6.02599 51.3589 5.89546H55.3734C56.4307 5.89533 57.4523 6.26257 58.2493 6.92929C59.0464 7.59602 59.5649 8.51713 59.7092 9.52234H53.4517C53.3189 8.30823 52.7534 7.17537 51.8508 6.31523V6.31523Z" fill="white"/>
<path d="M68.861 19.8819C68.2783 19.887 67.7007 19.7744 67.163 19.5506C66.6562 19.3426 66.1966 19.0355 65.811 18.6474C65.4256 18.2593 65.1221 17.7981 64.9187 17.2911C64.7031 16.7614 64.5941 16.1946 64.5981 15.623V15.5994C64.5938 15.0297 64.7027 14.4648 64.9187 13.9372C65.1255 13.4312 65.4278 12.9694 65.8093 12.5768C66.1975 12.1808 66.662 11.867 67.1749 11.654C67.7317 11.4241 68.3296 11.3094 68.9323 11.3169C69.2888 11.3141 69.6448 11.3458 69.9951 11.4115C70.2942 11.4683 70.5867 11.5555 70.8679 11.6718C71.1233 11.7791 71.3662 11.914 71.5922 12.074C71.8121 12.2303 72.0186 12.4044 72.2097 12.5945L71.0461 13.9313C70.7487 13.6584 70.415 13.4275 70.0545 13.2452C69.701 13.0758 69.3127 12.9907 68.9204 12.9968C68.5871 12.9937 68.2569 13.0623 67.9526 13.1978C67.6612 13.328 67.4004 13.5174 67.1867 13.7539C66.9705 13.9946 66.8013 14.2734 66.6879 14.5761C66.5678 14.8957 66.5075 15.2344 66.5099 15.5757V15.5994C66.5078 15.9425 66.5681 16.2832 66.6879 16.6049C66.7998 16.9088 66.9668 17.1895 67.1808 17.433C67.3983 17.6781 67.6663 17.8737 67.9665 18.0064C68.2667 18.1391 68.592 18.2058 68.9204 18.202C69.3375 18.2149 69.7515 18.1255 70.1258 17.9418C70.4818 17.7485 70.8111 17.5098 71.1053 17.2319L72.2691 18.4031C72.0634 18.6245 71.841 18.8301 71.6041 19.0182C71.3712 19.2017 71.1182 19.3584 70.85 19.4856C70.5643 19.6199 70.2633 19.7192 69.9535 19.7813C69.5937 19.8516 69.2277 19.8853 68.861 19.8819Z" fill="white"/>
<path d="M73.4327 11.4589H75.2614V14.7358H78.6339V11.4589H80.4626V19.7398H78.6339V16.4156H75.2614V19.7398H73.4327V11.4589Z" fill="white"/>
<path d="M82.2437 11.4589H84.0725V19.7398H82.2437V11.4589Z" fill="white"/>
<path d="M85.8539 11.4589H89.2498C89.7037 11.4518 90.1554 11.5218 90.5857 11.6658C90.955 11.7907 91.2946 11.99 91.5833 12.2514C91.8563 12.5041 92.0712 12.8129 92.2127 13.1565C92.3628 13.5265 92.4373 13.9226 92.4323 14.3217V14.3454C92.4416 14.7815 92.3524 15.2142 92.1712 15.6112C92.0039 15.9651 91.7581 16.2765 91.4526 16.5221C91.1359 16.7729 90.7727 16.9597 90.384 17.0721C89.9581 17.1971 89.5156 17.2589 89.0718 17.2556H87.6822V19.7398H85.8539V11.4589ZM89.1313 15.6349C89.5902 15.6349 89.9466 15.5146 90.1999 15.274C90.3231 15.1603 90.4205 15.0219 90.4857 14.868C90.5513 14.714 90.5835 14.548 90.5799 14.3809V14.3572C90.5914 14.1813 90.5613 14.0052 90.4922 13.8429C90.423 13.6807 90.317 13.5367 90.1819 13.4227C89.8678 13.1944 89.4838 13.0815 89.0954 13.1032H87.6822V15.6349H89.1313Z" fill="white"/>
<path d="M66.2208 7.32928C66.4482 7.32928 66.6246 7.2712 66.7501 7.15504C66.8755 7.03501 66.9382 6.88787 66.9382 6.71363V6.70201C66.9382 6.50067 66.8716 6.34772 66.7383 6.24318C66.6089 6.13863 66.4306 6.08636 66.2032 6.08636H65.5035V7.32928H66.2208ZM64.5979 5.27904H66.2796C66.5266 5.27904 66.7461 5.31389 66.9382 5.38359C67.1342 5.44941 67.2989 5.54427 67.4321 5.66818C67.5693 5.79208 67.6732 5.94116 67.7438 6.1154C67.8183 6.28577 67.8555 6.4755 67.8555 6.68459V6.6962C67.8555 6.9324 67.8124 7.13955 67.7261 7.31766C67.6399 7.49578 67.5203 7.64485 67.3675 7.76488C67.2185 7.88492 67.0421 7.97591 66.8383 8.03786C66.6383 8.09594 66.4227 8.12498 66.1914 8.12498H65.5035V9.34467H64.5979V5.27904Z" fill="white"/>
<path d="M70.8895 7.64291L70.3426 6.32449L69.7958 7.64291H70.8895ZM69.9369 5.25H70.7719L72.5359 9.34467H71.5892L71.2129 8.43281H69.4724L69.096 9.34467H68.1729L69.9369 5.25Z" fill="white"/>
<path d="M74.3296 7.74165L72.7478 5.27904H73.8062L74.7882 6.9111L75.7878 5.27904H76.8168L75.2351 7.72423V9.34467H74.3296V7.74165Z" fill="white"/>
<path d="M78.8256 5.27904H79.7958L80.6485 8.03205L81.5716 5.26742H82.3478L83.271 8.03205L84.1236 5.27904H85.0703L83.665 9.37371H82.877L81.948 6.71363L81.0189 9.37371H80.231L78.8256 5.27904Z" fill="white"/>
<path d="M85.7822 5.27904H86.6877V9.34467H85.7822V5.27904Z" fill="white"/>
<path d="M88.6749 6.10378H87.4224V5.27904H90.8329V6.10378H89.5804V9.34467H88.6749V6.10378Z" fill="white"/>
<path d="M91.5293 5.27904H92.4348V6.88787H94.1048V5.27904H95.0103V9.34467H94.1048V7.71261H92.4348V9.34467H91.5293V5.27904Z" fill="white"/>
<defs>
<linearGradient id="paint0_linear_432_2147" x1="61.1461" y1="15.9683" x2="73.669" y2="-10.4694" gradientUnits="userSpaceOnUse">
<stop stop-color="#5147DD"/>
<stop offset="1" stop-color="#DD80DD"/>
</linearGradient>
</defs>
</svg>
